# xmcd
#
# Track frame offsets:
#	150
#	12096
#	24481
#	41715
#	53345
#	73597
#	85456
#	101404
#	114562
#	123546
#	133767
#	144651
#	157740
#
# Disc length: 2273 seconds
#
# Revision: 1
# Processed by: cddbd v1.5.2PL0 Copyright (c) Steve Scherf et al.
# Submitted via: audiograbber 1.83.01
#
DISCID=a708df0d
DTITLE=Breaking Tradition - Breaking Out
DYEAR=2002
DGENRE=Bluegrass
TTITLE0=Fickle Wind
TTITLE1=Sweet Blue Eyed Darling
TTITLE2=Three Rusty Nails
TTITLE3=Whiskey Before Breakfast
TTITLE4=Rock Salt and Nails
TTITLE5=Are You Lonely My Little Mountain Girl
TTITLE6=Cherry Blossoms
TTITLE7=Carolina In The Pines
TTITLE8=Oh Daniel Prayed
TTITLE9=Nashville Skyline Rag
TTITLE10=Cold Sheets Of Rain
TTITLE11=Picture In A Tear
TTITLE12=Molly
EXTD=Lead and Bariton Vocals, Guitar - Lester Parks\nLead and Baritone Vocals, Bass
EXTD=Trevor Bartley\nLead and Bass Vocals, Bass - Hal Boyd\nLead and Tenor Voc
EXTD=als, Mandolin - Dan Carty\nRecorded @ Eastwood Recording Studios, Cana, VA
EXTD=\n2002
EXTT0=
EXTT1=
EXTT2=
EXTT3=
EXTT4=
EXTT5=
EXTT6=
EXTT7=
EXTT8=
EXTT9=
EXTT10=
EXTT11=
EXTT12=
PLAYORDER=
